<svg id="Buttons" xmlns="http://www.w3.org/2000/svg" width="321" height="321" viewBox="0 0.5 321 321">
  <defs>
    <style>
      .cls-1 {
        fill: #fff;
      }

      .cls-2 {
        opacity: 0.3;
      }

      .cls-3 {
        fill: #ccc;
      }

      .cls-3, .cls-4 {
        fill-rule: evenodd;
      }

      .cls-4 {
        fill: #151515;
      }

      .cls-5 {
        fill: #d7675f;
      }

      .cls-6 {
        fill: #fccf68;
      }

      .cls-7 {
        fill: #62c555;
      }
    </style>
  </defs>
  <rect id="Rounded_Rectangle_1" data-name="Rounded Rectangle 1" class="cls-1" y="0.5" width="321" height="321" rx="3" ry="3"/>
  <g id="Horizontal" class="cls-2">
    <path class="cls-3" d="M0,136v-1H321v1H0Z"/>
    <path id="Shape_1_copy" data-name="Shape 1 copy" class="cls-3" d="M0,155v-1H321v1H0Z"/>
    <path id="Shape_1_copy_2" data-name="Shape 1 copy 2" class="cls-3" d="M0,174v-1H321v1H0Z"/>
    <path id="Shape_1_copy_2-2" data-name="Shape 1 copy 2" class="cls-3" d="M0,193v-1H321v1H0Z"/>
    <path id="Shape_1_copy_3" data-name="Shape 1 copy 3" class="cls-3" d="M0,213v-1H321v1H0Z"/>
    <path id="Shape_1_copy_3-2" data-name="Shape 1 copy 3" class="cls-3" d="M0,232v-1H321v1H0Z"/>
    <path id="Shape_1_copy_4" data-name="Shape 1 copy 4" class="cls-3" d="M0,252v-1H321v1H0Z"/>
    <path id="Shape_1_copy_4-2" data-name="Shape 1 copy 4" class="cls-3" d="M0,271v-1H321v1H0Z"/>
    <path id="Shape_1_copy_5" data-name="Shape 1 copy 5" class="cls-3" d="M0,290v-1H321v1H0Z"/>
    <path id="Shape_1_copy_5-2" data-name="Shape 1 copy 5" class="cls-3" d="M0,309v-1H321v1H0Z"/>
  </g>
  <g id="vertical" class="cls-2">
    <path id="Shape_1_copy_6" data-name="Shape 1 copy 6" class="cls-3" d="M19.5,136h1V308h-1V136Z"/>
    <path id="Shape_1_copy_7" data-name="Shape 1 copy 7" class="cls-3" d="M56.5,136h1V308h-1V136Z"/>
    <path id="Shape_1_copy_8" data-name="Shape 1 copy 8" class="cls-3" d="M95.5,136h1V308h-1V136Z"/>
    <path id="Shape_1_copy_9" data-name="Shape 1 copy 9" class="cls-3" d="M134.5,136h1V308h-1V136Z"/>
    <path id="Shape_1_copy_10" data-name="Shape 1 copy 10" class="cls-3" d="M171.5,136h1V308h-1V136Z"/>
    <path id="Shape_1_copy_11" data-name="Shape 1 copy 11" class="cls-3" d="M209.5,136h1V308h-1V136Z"/>
    <path id="Shape_1_copy_12" data-name="Shape 1 copy 12" class="cls-3" d="M248.5,136h1V308h-1V136Z"/>
    <path id="Shape_1_copy_13" data-name="Shape 1 copy 13" class="cls-3" d="M287.5,136h1V308h-1V136Z"/>
  </g>
  <path id="black_bar_1" data-name="black bar 1" class="cls-4" d="M320,34H0V3.045A3.023,3.023,0,0,1,3,0H318a3.023,3.023,0,0,1,3,3.045V34h-1Z"/>
  <circle class="cls-5" cx="16.5" cy="17.5" r="3.5"/>
  <circle id="Ellipse_1_copy" data-name="Ellipse 1 copy" class="cls-6" cx="29.5" cy="17.5" r="3.5"/>
  <circle id="Ellipse_1_copy_2" data-name="Ellipse 1 copy 2" class="cls-7" cx="42.5" cy="17.5" r="3.5"/>
</svg>
